# xmcd CD database file
#
# Track frame offsets:
#        150
#        15570
#        31874
#        46566
#        65829
#        82287
#        100893
#        112677
#        131936
#        150311
#
# Disc length: 2259 seconds
#
# Revision: 0
# Processed by: cddbd v1.5.2PL0 Copyright (c) Steve Scherf et al.
# Submitted via: CUERipper 2.1.6
#
DISCID=7508d10a
DTITLE=Matt Ryan - Farm Fresh
DYEAR=2010
DGENRE=Country
TTITLE0=The Ride
TTITLE1=Don't Close Your Eeyes
TTITLE2=All My Ex's
TTITLE3=One Piece at a Time
TTITLE4=Luckenbach Texas
TTITLE5=In Color
TTITLE6=Folsom Prison Blues
TTITLE7=Country Boy Can Survive
TTITLE8=Long Black Train
TTITLE9=Man of Constant Sorrow
EXTD=
EXTT0=
EXTT1=
EXTT2=
EXTT3=
EXTT4=
EXTT5=
EXTT6=
EXTT7=
EXTT8=
EXTT9=
PLAYORDER=
